#!OML:ASF X:\für Bonn\!DataBase\2005_08_10_Bjorn_Final\c3d\bjorn.ASF
:FULLY-SPECIFIED
:DEGREES
229
root -1.09937 18.2331 10.032 -537.477 33.7873 -531.874
lowerback -4.04459 3.8551 10.0024
upperback 4.01758 4.52004 2.39487
thorax 7.11339 2.72852 -2.55158
lowerneck -9.57857 6.06064 13.2412
upperneck 8.38301 7.84927 -12.9798
head 5.13302 3.6095 -5.63065
rclavicle 2.36057e-014 -2.22639e-014
rhumerus 50.9995 29.5744 -72.6823
rradius 95.6274
rwrist 28.2945
rhand -46.5243 34.9478
rfingers 7.12502
rthumb -19.2499 5.88056
lclavicle 2.36057e-014 -2.22639e-014
lhumerus 33.2293 -32.6437 81.6183
lradius 107.738
lwrist 32.288
lhand -50.2064 -13.4574
lfingers 7.12502
lthumb -22.7872 15.2167
rfemur 367.798 0.168612 -348.888
rtibia 34.0308
rfoot -9.62367 21.7839
rtoes -27.8796
lfemur -25.2609 7.3213 -3.36952
ltibia 52.4363
lfoot -13.9856 4.73519
ltoes -24.7616
230
root -1.08566 18.4589 9.87408 -537.28 34.5703 -531.891
lowerback -4.53739 4.1701 10.0365
upperback 3.69112 4.87844 2.26768
thorax 7.1078 2.88645 -2.63951
lowerneck -9.19268 5.96856 13.3293
upperneck 8.99827 7.79709 -12.7739
head 5.24206 3.61197 -5.59373
rclavicle 1.0461e-014 4.09496e-014
rhumerus 51.3066 29.6866 -72.5173
rradius 94.8472
rwrist 27.6378
rhand -46.5743 35.1045
rfingers 7.12502
rthumb -19.298 6.042
lclavicle 1.0461e-014 4.09496e-014
lhumerus 32.6837 -32.1924 81.7273
lradius 107.618
lwrist 32.3524
lhand -50.527 -13.4121
lfingers 7.12502
lthumb -23.0949 15.2238
rfemur 367.958 -0.937248 -349.79
rtibia 32.8635
rfoot -4.39632 21.2381
rtoes -28.0767
lfemur -23.4401 7.94316 -3.48401
ltibia 50.0143
lfoot -12.2789 4.32379
ltoes -26.1195
231
root -1.06717 18.6955 9.72003 -537.043 35.3273 -531.917
lowerback -5.06208 4.47069 9.99543
upperback 3.34618 5.2217 2.15685
thorax 7.09033 3.0327 -2.66601
lowerneck -8.80589 5.87691 13.3858
upperneck 9.6669 7.75807 -12.5493
head 5.36731 3.62431 -5.54455
rclavicle 8.1129e-015 -8.74653e-015
rhumerus 51.8186 29.7534 -72.2806
rradius 93.8848
rwrist 26.9349
rhand -46.6972 35.0656
rfingers 7.12502
rthumb -19.4161 6.01498
lclavicle 8.1129e-015 -8.74653e-015
lhumerus 32.3142 -31.6018 81.7802
lradius 107.334
lwrist 32.4399
lhand -50.8032 -13.0788
lfingers 7.12502
lthumb -23.3598 15.5237
rfemur 367.873 -2.23699 -350.668
rtibia 31.9841
rfoot 0.866655 20.1462
rtoes -28.6948
lfemur -21.7542 8.32543 -3.61741
ltibia 47.6268
lfoot -10.1865 4.13108
ltoes -28.2053
232
root -1.04708 18.943 9.5723 -536.842 36.0194 -531.98
lowerback -5.51459 4.73624 9.89126
upperback 2.98409 5.53641 2.03778
thorax 7.00297 3.16079 -2.67478
lowerneck -8.54714 5.79512 13.4685
upperneck 10.5623 7.744 -12.3371
head 5.58957 3.64984 -5.49996
rclavicle 2.1916e-014 -1.68967e-014
rhumerus 52.4831 29.7102 -72.0585
rradius 92.6955
rwrist 26.221
rhand -46.9695 35.2756
rfingers 7.12502
rthumb -19.678 6.25154
lclavicle 2.1916e-014 -1.68967e-014
lhumerus 32.0962 -30.8526 81.8279
lradius 106.872
lwrist 32.7765
lhand -50.8866 -12.5555
lfingers 7.12502
lthumb -23.4398 16.0368
rfemur 367.633 -3.74243 -351.545
rtibia 31.3946
rfoot 5.99083 18.5095
rtoes -29.0728
lfemur -20.1634 8.28794 -3.80156
ltibia 45.2953
lfoot -7.80801 4.24877
ltoes -31.0291
233
root -1.02001 19.1955 9.43245 -536.732 36.6458 -532.049
lowerback -5.89191 4.96095 9.68344
upperback 2.6602 5.81587 1.95373
thorax 6.89306 3.26946 -2.59759
lowerneck -8.37285 5.72244 13.4976
upperneck 11.5298 7.74931 -12.1035
head 5.84956 3.6863 -5.43655
rclavicle -2.88673e-014 2.00773e-014
rhumerus 53.3814 29.5617 -71.8564
rradius 91.1377
rwrist 25.6125
rhand -47.4624 35.868
rfingers 7.12502
rthumb -20.1517 6.89316
lclavicle -2.88673e-014 2.00773e-014
lhumerus 31.88 -29.9772 81.9849
lradius 106.373
lwrist 33.4061
lhand -50.6771 -12.0224
lfingers 7.12502
lthumb -23.2388 16.5954
rfemur 367.375 -5.13385 -352.273
rtibia 31.0674
rfoot 10.3416 16.5239
rtoes -29.1473
lfemur -18.61 8.11022 -3.93963
ltibia 43.0612
lfoot -5.22312 4.29926
ltoes -33.5568
234
root -0.988321 19.4447 9.30007 -536.732 37.2192 -532.202
lowerback -6.23066 5.14739 9.3453
upperback 2.39411 6.05997 1.85957
thorax 6.80377 3.35967 -2.46409
lowerneck -8.21409 5.66144 13.5335
upperneck 12.3499 7.75323 -11.8739
head 6.0685 3.72321 -5.37483
rclavicle -8.13231e-014 -9.74045e-015
rhumerus 54.5317 29.2813 -71.8223
rradius 89.1571
rwrist 25.1138
rhand -48.0007 37.0631
rfingers 7.12502
rthumb -20.6691 8.14373
lclavicle -8.13231e-014 -9.74045e-015
lhumerus 31.7777 -28.9812 82.1766
lradius 105.803
lwrist 34.2581
lhand -50.267 -11.586
lfingers 7.12502
lthumb -22.8454 17.0809
rfemur 367.109 -6.13871 -352.837
rtibia 30.9685
rfoot 13.5353 14.337
rtoes -28.6501
lfemur -17.146 7.80973 -4.11975
ltibia 40.9776
lfoot -2.52665 4.44923
ltoes -35.5961
235
root -0.953995 19.6814 9.17563 -536.663 37.7424 -532.257
lowerback -6.59262 5.33572 9.06399
upperback 2.14677 6.302 1.76387
thorax 6.75278 3.4546 -2.35805
lowerneck -8.06225 5.59349 13.5667
upperneck 13.0486 7.72761 -11.6124
head 6.24693 3.74799 -5.30415
rclavicle -6.26556e-014 -1.03368e-014
rhumerus 55.7979 28.8449 -72.0358
rradius 86.8004
rwrist 24.8126
rhand -48.5842 38.8305
rfingers 7.12502
rthumb -21.2297 9.97307
lclavicle -6.26556e-014 -1.03368e-014
lhumerus 31.9773 -27.8915 82.3683
lradius 104.938
lwrist 35.3228
lhand -49.7899 -11.4541
lfingers 7.12502
lthumb -22.3874 17.2687
rfemur 366.79 -6.66503 -353.045
rtibia 31.0572
rfoot 15.4461 12.0979
rtoes -28.1795
lfemur -15.8795 7.51461 -4.1704
ltibia 39.0892
lfoot 0.238995 4.67428
ltoes -36.6933
